<?xml version="1.0" standalone="no"?>
<!DOCTYPE svg PUBLIC "-//W3C//DTD SVG 20010904//EN"
 "http://www.w3.org/TR/2001/REC-SVG-20010904/DTD/svg10.dtd">
<svg version="1.0" xmlns="http://www.w3.org/2000/svg"
 width="1029.000000pt" height="866.000000pt" viewBox="0 0 1029.000000 866.000000"
 preserveAspectRatio="xMidYMid meet">

<g transform="translate(0.000000,866.000000) scale(0.100000,-0.100000)"
fill="#000000" stroke="none">
<path d="M6460 7977 c-28 -20 -54 -25 -134 -31 -54 -4 -110 -12 -125 -18 -14
-6 -125 -14 -246 -19 -231 -8 -414 -23 -493 -40 -26 -5 -76 -14 -112 -19 -36
-5 -78 -14 -93 -19 -15 -6 -83 -26 -150 -45 l-122 -34 -650 -5 c-430 -3 -676
-1 -727 6 -76 11 -119 6 -243 -25 -22 -5 -57 -12 -77 -15 -23 -3 -38 -11 -38
-19 0 -8 -16 -14 -47 -16 -46 -3 -76 -28 -33 -28 12 0 18 -4 15 -10 -3 -5 -19
-10 -34 -10 -15 0 -37 -9 -49 -20 -12 -11 -34 -20 -51 -20 -18 0 -32 -7 -37
-17 -5 -10 -11 -241 -12 -513 -4 -515 16 -1105 43 -1273 8 -54 13 -249 14
-644 1 -321 6 -576 12 -590 5 -13 9 -50 9 -81 1 -67 19 -202 48 -357 12 -60
35 -195 52 -300 17 -104 35 -210 41 -235 5 -25 12 -62 15 -83 6 -31 10 -36 25
-32 16 5 19 1 19 -22 0 -37 10 -73 21 -73 4 0 11 17 15 38 l7 37 10 -35 c5
-19 15 -39 23 -43 8 -4 15 -18 15 -30 1 -20 2 -20 6 -2 3 11 13 29 23 40 30
34 45 260 31 469 -10 151 -19 231 -52 471 -5 33 -9 92 -9 130 -1 39 -6 90 -11
115 -7 28 -10 268 -10 625 0 356 -3 597 -10 625 -12 56 -44 696 -32 648 4 -16
6 -16 32 0 47 30 96 94 146 196 27 54 63 112 80 130 17 17 40 42 50 56 11 14
37 38 57 54 47 35 178 206 230 301 51 90 98 159 139 201 27 28 30 36 19 49
-11 13 38 15 481 15 l494 0 95 25 c52 14 131 36 175 49 44 14 121 30 170 36
50 7 108 17 130 22 22 5 148 11 280 14 157 4 266 11 315 21 41 9 127 19 190
22 87 6 126 13 160 29 61 29 130 98 130 128 0 23 -27 64 -42 64 -4 0 -23 15
-42 33 -47 44 -64 57 -74 57 -5 0 -13 9 -18 20 -9 20 -9 20 -44 -3z m-2860
-477 c14 -5 51 -11 83 -15 31 -4 57 -10 57 -14 0 -4 -12 -23 -26 -42 -14 -19
-36 -54 -48 -79 -20 -42 -37 -70 -105 -175 -14 -21 -53 -69 -87 -105 -33 -36
-84 -101 -113 -145 -29 -44 -55 -82 -57 -84 -2 -2 -4 149 -4 336 l0 340 138
-4 c75 -2 148 -8 162 -13z"/>
<path d="M6357 7599 c4 -14 0 -26 -10 -34 -21 -15 -24 -91 -12 -250 9 -118 8
-219 -1 -356 l-6 -86 -59 -18 c-53 -15 -68 -27 -138 -101 -71 -76 -80 -91
-102 -161 -19 -64 -23 -101 -24 -203 l0 -125 43 -74 c35 -58 56 -80 103 -111
33 -21 74 -42 92 -45 18 -4 51 -15 74 -26 57 -25 117 -38 181 -39 56 0 63 -7
33 -34 -15 -13 -21 -43 -31 -154 -12 -143 -14 -152 -32 -152 -31 0 -215 -116
-227 -143 -1 -4 -21 -19 -42 -33 -21 -13 -39 -31 -39 -39 0 -8 -17 -26 -37
-39 -21 -14 -56 -43 -78 -66 -31 -32 -37 -43 -26 -49 11 -7 7 -13 -15 -27 -31
-20 -63 -54 -64 -66 0 -15 27 -8 45 12 25 28 39 25 20 -4 -17 -25 -10 -36 25
-43 8 -1 29 -5 47 -9 25 -5 48 3 120 42 48 26 113 66 143 89 30 22 79 54 108
71 43 24 54 26 61 15 5 -8 7 -20 4 -27 -3 -7 3 -37 13 -66 9 -29 17 -55 17
-58 0 -3 3 -15 8 -27 5 -13 11 -44 15 -70 3 -26 11 -59 16 -73 11 -28 15 -55
23 -151 l5 -66 -51 -39 c-27 -21 -65 -51 -84 -67 -37 -31 -95 -115 -95 -139 0
-8 -8 -23 -19 -32 -10 -9 -27 -38 -36 -64 -20 -52 -63 -122 -76 -122 -4 0 -23
-25 -42 -55 -53 -86 -77 -276 -32 -259 8 4 15 2 15 -2 0 -5 12 -9 28 -10 33
-1 137 -12 137 -15 0 -1 12 -2 27 -3 22 -2 29 4 38 28 5 16 10 48 10 71 0 33
7 50 35 83 41 47 89 147 80 162 -4 6 0 19 9 28 25 29 68 132 62 149 -4 10 1
21 14 30 11 8 34 34 51 59 28 41 29 47 15 57 -15 11 -11 17 29 57 25 24 45 51
45 59 0 8 3 11 7 8 3 -4 12 -2 19 4 8 6 14 7 18 0 4 -6 13 -8 20 -5 7 3 16 -2
20 -11 4 -11 12 -14 26 -10 16 5 20 2 20 -19 0 -20 8 -30 35 -43 19 -9 35 -22
35 -29 0 -7 21 -28 48 -47 26 -20 63 -52 82 -72 19 -20 61 -57 93 -82 32 -25
84 -67 114 -94 31 -27 61 -49 67 -49 7 0 19 -9 29 -20 18 -22 42 -26 52 -10 4
6 10 8 14 6 4 -3 14 4 22 15 8 11 40 47 71 81 l58 60 -20 25 c-24 30 -90 82
-106 83 -6 0 -19 9 -28 19 -9 10 -45 36 -79 57 -34 21 -84 56 -110 78 -26 22
-53 41 -60 42 -18 3 -117 52 -155 76 l-33 21 -6 -21 c-5 -19 -7 -20 -45 -6
-22 8 -44 14 -49 14 -19 0 -7 -19 23 -38 l32 -21 -47 2 -47 2 0 55 c0 71 -26
230 -39 243 -6 6 -11 24 -11 39 0 28 -33 148 -49 178 -4 8 -14 39 -20 68 -7
28 -17 55 -22 58 -5 3 -9 39 -9 81 0 67 -12 143 -41 254 -5 20 -9 46 -9 58 0
18 -4 21 -20 16 -17 -5 -20 -2 -20 22 0 37 -10 73 -21 73 -4 0 -11 -17 -15
-37 l-7 -38 -10 35 c-5 19 -15 39 -23 43 -33 19 -9 27 79 27 114 0 156 11 223
60 59 45 104 97 160 189 l39 64 0 191 c0 169 -2 195 -19 226 -33 61 -78 109
-112 120 -18 6 -43 20 -57 30 -39 31 -141 60 -210 60 l-64 0 -8 147 c-4 94
-14 174 -27 223 -11 41 -23 92 -28 112 -4 21 -12 43 -17 50 -6 7 -14 28 -18
46 -5 26 -10 32 -26 27 -15 -5 -19 -1 -19 19 0 31 -17 76 -29 76 -5 0 -9 -6
-8 -12 0 -7 -1 -24 -2 -38 l-3 -25 -10 28 c-5 15 -15 27 -21 27 -6 0 -18 7
-28 16 -16 15 -17 14 -12 -7z m223 -919 c14 -4 20 -8 15 -9 -6 -1 -11 -10 -12
-21 -1 -15 6 -21 35 -25 83 -14 98 -18 112 -30 8 -7 25 -16 37 -19 20 -6 22
-15 25 -94 4 -86 3 -88 -35 -149 -21 -34 -45 -64 -53 -67 -9 -3 -67 -6 -130
-6 -83 0 -125 4 -152 16 -20 9 -57 22 -82 28 l-45 12 -11 71 c-9 59 -8 78 7
122 22 68 67 114 135 137 30 10 54 21 54 25 0 15 63 21 100 9z m140 -1914 c0
-2 -8 -10 -17 -17 -16 -13 -17 -12 -4 4 13 16 21 21 21 13z"/>
<path d="M4815 3690 c-133 -7 -190 -15 -340 -49 -99 -23 -232 -58 -295 -78
-63 -19 -190 -57 -281 -83 -286 -84 -516 -176 -638 -255 -20 -13 -72 -37 -116
-53 -44 -16 -109 -46 -145 -65 -36 -20 -84 -43 -108 -51 -23 -8 -74 -34 -113
-58 -39 -24 -106 -63 -149 -88 -44 -25 -92 -57 -107 -71 -15 -15 -46 -40 -69
-55 -85 -61 -278 -236 -308 -280 -20 -30 -53 -74 -145 -191 -36 -46 -151 -250
-151 -268 0 -3 7 -5 15 -5 14 0 14 -3 0 -27 -8 -16 -21 -36 -27 -45 -22 -30 1
-32 32 -3 32 30 38 28 18 -8 -7 -12 -13 -36 -13 -54 -2 -27 0 -30 10 -16 9 12
16 13 31 5 17 -9 29 -1 84 57 68 70 173 184 331 359 52 57 106 110 120 117 14
8 58 40 96 72 124 101 187 147 236 170 26 12 67 36 91 52 53 37 319 162 396
186 30 10 84 35 120 55 162 93 335 161 620 240 80 22 192 56 250 74 146 47
396 104 515 117 119 14 553 6 635 -11 60 -13 204 -62 260 -90 19 -9 64 -25
100 -34 36 -10 81 -27 100 -38 19 -11 68 -33 110 -50 41 -16 80 -34 86 -39 6
-5 75 -42 153 -83 78 -41 181 -99 229 -129 48 -30 131 -80 185 -112 53 -31
134 -87 180 -124 45 -37 132 -102 194 -144 61 -43 130 -96 151 -120 196 -209
293 -316 329 -358 23 -27 66 -68 95 -91 29 -23 85 -71 123 -107 76 -71 259
-220 341 -277 69 -48 308 -150 380 -163 126 -22 193 -31 231 -31 38 0 40 1 38
30 -1 17 2 33 7 36 4 3 6 9 3 14 -3 5 0 21 7 37 6 15 12 33 13 38 1 6 7 28 13
50 7 22 12 44 12 48 0 18 -95 48 -177 56 -184 17 -405 141 -633 356 -47 45
-106 95 -131 112 -25 18 -70 60 -99 95 -49 57 -107 120 -346 371 -45 47 -113
103 -172 141 -53 35 -142 100 -197 144 -55 45 -137 103 -183 129 -45 26 -128
77 -185 112 -56 35 -178 104 -272 153 -93 49 -175 94 -181 99 -6 5 -35 17 -65
28 -30 10 -81 32 -115 49 -33 17 -87 38 -120 47 -32 10 -84 29 -114 42 -94 42
-220 82 -309 98 -106 19 -421 26 -636 15z"/>
</g>
</svg>
